/* XPM */
static char *_a9c0e628f46417e9d568483878d28f6Gu05JjT1OmrhDRok[] = {
/* columns rows colors chars-per-pixel */
"64 64 65 1 ",
"  c None",
". c #0F723D",
"X c #14753D",
"o c #17783D",
"O c #1C7C3E",
"+ c #207E3E",
"@ c #0F9D2D",
"# c #129F2D",
"$ c #24813E",
"% c #2B863E",
"& c #2E893E",
"* c #328B3F",
"= c #39913F",
"- c #14A02E",
"; c #1CA32F",
": c #22A62F",
"> c #25A82F",
", c #21A530",
"< c #2BAB30",
"1 c #32AE31",
"2 c #37B031",
"3 c #38B032",
"4 c #41973F",
"5 c #44993F",
"6 c #4A9E3F",
"7 c #4DA03F",
"8 c #44B633",
"9 c #47B833",
"0 c #4BBA33",
"q c #54BE35",
"w c #5BBF39",
"e c #57C034",
"r c #59C135",
"t c #64C536",
"y c #68C737",
"u c #64C339",
"i c #69C738",
"p c #6CC839",
"a c #73CB3A",
"s c #7BCE3C",
"d c #7FD03C",
"f c #499D40",
"g c #52A340",
"h c #59A940",
"j c #60AD41",
"k c #65B140",
"l c #69B541",
"z c #6EB941",
"x c #71B941",
"c c #78BF41",
"v c #7DC341",
"b c #83D23E",
"n c #8BD53E",
"m c #90D73F",
"M c #90D93F",
"N c #81C642",
"B c #84C942",
"V c #8ACD42",
"C c #90CF43",
"Z c #8CD241",
"A c #93D642",
"S c #98D743",
"D c #95D941",
"F c #9BDA42",
"G c #A0DD43",
/* pixels */
"                                                                ",
"                                                                ",
"                                                                ",
"                                                                ",
"                                                                ",
"                                                                ",
"                                                                ",
"                                                                ",
"                                                                ",
"                                                                ",
"                                                                ",
"                                                                ",
"                                                                ",
"                                                                ",
"                                                                ",
"                           X.XXXX.X.X                           ",
"                          +++++++++$++                          ",
"                          7hgg77ggg7g6                          ",
"                        o+NbCVVVVVVVVB+OO                       ",
"                        46SmnnnnnnnnnSf54                       ",
"                     XX&bbmpyyyyyyyyaFNNN=Xo                    ",
"                    &==fFmnueeeeeeeetnnmF7*=&                   ",
"                   X=vcvMspreeeeeeeerppaFvcc6X                  ",
"                  &*7FZAnrrerrrrrrrreeerbDAFj%&                 ",
"                  6lNMsspqqqrrrrrrereeeeaaaMBl7                 ",
"                 OkFmbrrrttrqrrrerrrrrrrrrrbAFx+                ",
"                 5BDspqqwssrrrrrrrrrrrrreeqpsMV6                ",
"                OlFstrrrtmmtrrrrrrrrrrrreerrrsFxO               ",
"                4BDiqraasMbtqrrrrrrrrrrrrrreqinV5               ",
"               XlFdrepAAmMywqrrrrrrrerrrrrreersFcO              ",
"               XvDierdGGGbrqrrrrrrrrrrrrrrrrreyDBo              ",
"               XcsrepDFGGpwwrrrrrrrrrerrrrrrrersNo              ",
"               *BaerdFZZbrerrrrrrrrrrrrrrrrrrreyV=              ",
"              OkSpepDDppprererrrrrrrrrrrrrrrrretMl+             ",
"              OvSieaDderrrrrrrrrrrrrrrrerrrrrrevDV+             ",
"              XBbueysieeerrrrrrrrrrrreeerrrrrrervZO             ",
"              $NprrrrrrrrrrrrrrrrrrrrerrrrrrrrrepZ$             ",
"              hAiereeerrrrrrrrrrrrrrrrrrrrrrerreuDh$            ",
"             OvFperreerrrrrrrrrrrrrrrrrrrrrrrrreuFV$            ",
"             OZnterrrrrrerrrrrrrrrrrrrrrrrrrrrrrrZD$            ",
"             OVprerrrrrerrrrrrrrrrrrrrrrrrrrrrrerpZ$            ",
"             $VyerrrrrrrrrrrrrrrrrrrrrrrrrrrrerrruZ$            ",
"             OVyerrrrrrerrrerrrrrrrrrrrerererrrrrrA$            ",
"             OViererrrrre0000000999e0009errrrrrrryZ$            ",
"             OVyereerrrre<<<<<<<<<<<<><<ererrrrrryZ$            ",
"             OVyerre0e0q0---#-----------8e0eeerrrrZ$            ",
"             OVyerr92<2<<-#@@#@@--@@-@-@<122<3rreuZ$            ",
"             OVieee2-;-;---------------------1reruC$            ",
"             OVbu83>##@#@--------------@####-,38rdZ$            ",
"             OVFp<;----@----------------####---<ySA$            ",
"             OVGw;@@--------#----------------#@;qFA$            ",
"             OVG8----------------------------#--3FZ$            ",
"             $zA3@-----------------------------@<Sc$            ",
"              =V3@-----------------------------@1V=             ",
"              Ov0;@#----#-------@-------#-----@;8V+             ",
"              oBB1@@----------#--------------@@<vZO             ",
"              OcFq,;---####-####-----###---##;,8Fv+             ",
"               fVsu3@@@@@@#@#@##@@@@@@@@@@@@@1rsSf              ",
"               OcAAw-;;;;;;;;;;;;;;;;,;;;;;;-qAAv$              ",
"                gjVbqqqqwqqwqqqqqqqwwqqqqwqqqvZjg               ",
"                $$lDZZZZVZZZZZZVZZZZZVZZZZZZZSc$%               ",
"                 .7xzzzxxzxzxxzzzxzxzzzzxxzzzzg.                ",
"                  &**************************&&                 ",
"                  XXXXXXXXXXXXXXXXXXXXXXXXXXXXX                 "
};
