/* XPM */
static char *_57b326ce96b4f6988f0b2a14f98efb7TaNdxv7UjnZbC6P5[] = {
/* columns rows colors chars-per-pixel */
"64 64 178 2 ",
"   c None",
".  c #000100",
"X  c #030A04",
"o  c #090B06",
"O  c #0E0D08",
"+  c #140E0A",
"@  c #190F0C",
"#  c #061509",
"$  c #0D140B",
"%  c #08190B",
"&  c #15110C",
"*  c #1D110D",
"=  c #1D180F",
"-  c #21120F",
";  c #241411",
":  c #2D1513",
">  c #2C1915",
",  c #341615",
"<  c #3A1517",
"1  c #341A16",
"2  c #391916",
"3  c #3F1619",
"4  c #3A1D1B",
"5  c #0B2611",
"6  c #0D2B14",
"7  c #122413",
"8  c #1C2515",
"9  c #112D16",
"0  c #1E2917",
"q  c #133017",
"w  c #153118",
"e  c #19341A",
"r  c #1F391E",
"t  c #212D1A",
"y  c #25301C",
"u  c #29361E",
"i  c #213B1F",
"p  c #233C20",
"a  c #2D3F23",
"s  c #373A22",
"d  c #42171A",
"f  c #431A1B",
"g  c #4C1B1E",
"h  c #531E1F",
"j  c #581F1F",
"k  c #4C1A21",
"l  c #541E21",
"z  c #5A1F22",
"x  c #601F24",
"c  c #532121",
"v  c #5C2224",
"b  c #532B22",
"n  c #5B2923",
"m  c #543427",
"M  c #632425",
"N  c #6B2626",
"B  c #642A26",
"V  c #662429",
"C  c #6B262A",
"Z  c #6E2C2B",
"A  c #662B2A",
"S  c #742727",
"D  c #73272C",
"F  c #742A2D",
"G  c #7D2C2D",
"H  c #6C302B",
"J  c #66322B",
"K  c #76352F",
"L  c #752B30",
"P  c #792D30",
"I  c #733730",
"U  c #7C3232",
"Y  c #7C3A33",
"T  c #723B31",
"R  c #2D4325",
"E  c #2E4728",
"W  c #2F4828",
"Q  c #364728",
"!  c #314A2A",
"~  c #3B482B",
"^  c #3B522F",
"/  c #464A2B",
"(  c #465634",
")  c #455835",
"_  c #495B36",
"`  c #4C5E38",
"'  c #774B37",
"]  c #52663E",
"[  c #5B6238",
"{  c #55683F",
"}  c #566940",
"|  c #5B6D42",
" . c #5F7044",
".. c #686F40",
"X. c #637445",
"o. c #697746",
"O. c #697847",
"+. c #677648",
"@. c #6A7949",
"#. c #717746",
"$. c #737F49",
"%. c #717A45",
"&. c #812E2F",
"*. c #822E30",
"=. c #853232",
"-. c #8C3335",
";. c #8E3B33",
":. c #8F363B",
">. c #863D35",
",. c #933D36",
"<. c #90373C",
"1. c #933C39",
"2. c #844136",
"3. c #8B4337",
"4. c #874539",
"5. c #854A3B",
"6. c #8C4B3D",
"7. c #9B433C",
"8. c #954A3F",
"9. c #9A4B3E",
"0. c #94463B",
"q. c #A1453F",
"w. c #964C41",
"e. c #9E4C41",
"r. c #8E5543",
"t. c #935341",
"y. c #9B5545",
"u. c #9A5844",
"i. c #A34740",
"p. c #A64A42",
"a. c #A65444",
"s. c #A95646",
"d. c #A05A46",
"f. c #A45F49",
"g. c #AD5B4A",
"h. c #B05C4B",
"j. c #98644B",
"k. c #A3634B",
"l. c #AE644D",
"z. c #A56D4F",
"x. c #B2644E",
"c. c #B06E4F",
"v. c #AF764F",
"b. c #B3724D",
"n. c #A56F52",
"m. c #AC6C50",
"M. c #B26B51",
"N. c #AC7454",
"B. c #AE7C58",
"V. c #A57253",
"C. c #B17956",
"Z. c #B37958",
"A. c #76814B",
"S. c #7B864C",
"D. c #7C864D",
"F. c #7D864D",
"G. c #7B864C",
"H. c #7F884E",
"J. c #7E884D",
"K. c #7F8951",
"L. c #808A4F",
"P. c #818A4F",
"I. c #828A51",
"U. c #878E53",
"Y. c #878F54",
"T. c #848C52",
"R. c #888F55",
"E. c #888F54",
"W. c #879054",
"Q. c #8A9156",
"!. c #8A9155",
"~. c #8F9459",
"^. c #8E9458",
"/. c #92965A",
"(. c #92965A",
"). c #BC875D",
"_. c #B4815D",
"`. c #C59266",
/* pixels */
"                                                                                                                                ",
"                                                                                                                                ",
"                                                                                                                                ",
"                                                                                                                                ",
"                                                                                                                                ",
"                                                                                                                                ",
"                                                                                                                                ",
"                                                                                                                                ",
"                                                                                                                                ",
"                                                                                                                                ",
"                                                                                                                                ",
"                                                                                                                                ",
"                                                                                                                                ",
"                                                                                                                                ",
"                                                                                                                                ",
"                        . # 6 6         . .                                                                                     ",
"                      . . # 6 6         . . %                                                                                   ",
"                      . .     6 6       . . 5 9                                                                                 ",
"                                6           6 6 6                                                                               ",
"                                6             6 9                                                                               ",
"                                6           6 6 6                                                                               ",
"                                6 5 5 5 5 5 6 6                         X X X X X X X X                                         ",
"                              9 W W W W ! W q                         * 1 1 f , , , , , &                                       ",
"                            q R  .+.+.+.+.+.! e                   - - f F M S V v N V M , - *                                   ",
"                          q W X.S.J.J.J.J.F.X.E 6               + l N N N h h h h v v M M M g +                                 ",
"                        5 W  .$.J.S.J.I.U.F.X.( i 6           & h N N j j h c M M M M N M v v l +                               ",
"                        5 ! ( 8 %.E./ s U.F.X.( p 5         - M N M j j x V N N N S S &.S C C V h *                             ",
"                        5 ! | [ S.U.#.X.L.S.X.( p 6       , n N M v M n M v M N M g g c h v C F C c :                           ",
"                        5 W X.H.P.U.^.U.S.S.X.( u 6     X : N M M M N x l l l j h z M C U 4.w.e.w.U v 1                         ",
"                        5 E +.K.U.^.^.U.L.S.X.( i 6     & , h v N N M x j j g l D <.1.9.s.h.h.h.h.1.=.c X                       ",
"                        5 W +.Q.R./.~.R.U.S.X.( p 5 o O 2 g g M N V v z l g g D 1.1.i.p.l.g.p.p.p.i.e.V & o                     ",
"                        5 W +.Q././././.U.S.X._ R 7 O > f f g v h z x l g d G -.1.1.1.i.h.M.l.s.s.i.h.y.M O                     ",
"                        5 E +.Q.(./.(.(.Q.U.F.+._ a 5 $ > 4 f z l l l l l d =.,.;.,.<.1.g.c.l.l.a.7.a.a.M O                     ",
"                        5 W +.Q.^.(././.^.Q.U.F.o.` R 7 $ ; f h z h g g g z =.;.,.1.<.,.h.t.H K Z 0.l.d.M O                     ",
"                        5 E @.Q.E.~././.(.W.Q.L.S.o.` R 7 $ - f z h g g f V P -.;.1.<.9.>.5.j.j.j.2.9.m.Y $                     ",
"                          R _ A.U.(.(.(.(.W.U.U.L.S.O.` E 7 + f x z l g d V G =.-.1.1.>.5.V.`.).).T 5.x.3.&                     ",
"                            r | I.~.~.(.(.^.U.E.I.F.S.X.( 0 + g v v v k d N &.=.-.-.=.K n._.n.b.N.T 6.u.n O                     ",
"                            p  .T.Q.~.(.(.(.Q.Q.I.L.S.X.( y & < k k v l d V P U =.G B k.Z.t.Y k.k.Y 8.' o o                     ",
"                            p | K.Q.~.(.(.(.^.U.U.U.F.S.X._ u O < k v z d v &.=.=.G B k.Z.n.6.Z Z 6.9.J X                       ",
"                              p | K.Q.~.(.(.(.Q.Q.U.F.F.+.` u O , k z l 3 k D &.=.F V f.b.v.n.t.8.9.b &                         ",
"                              w ] K.Q.Q.^.(.(.^.T.E.U.F.A.X.( y @ k l l k d V L L C V u.M.C.B.V.k.b -                           ",
"                              w ! | K.Q.Q.Q.(.~.^.Q.E.F.L.@.{ ( t ; k z k 3 V L C V M J 4.u.u.t.m =                             ",
"                                6 ) @.K.Q.Q.^.~.^.T.T.I.J.A.X.{ _ t = 3 k 3 V L C V V l C B c k o                               ",
"                                6 ^ { +.I.U.Q.Q.Q.Q.Q.E.P.L.A.X.| _ t = 3 3 V C M M C P v > % $                                 ",
"                                  6 ! } | K.U.T.T.T.T.T.T.J.S.A.| | _ p @ < k v c v C L 1 0 ~ Q e 9                             ",
"                                    w w i |  . .X.|  .X. . . . .| | } } ( & : < k k k ; Q } } } ] ] W 5 6                       ",
"                                          i i i p r r p r i i r r p p p r 5 7 8 8 8 8 5 e p p p p p w 6 6 6 9                   ",
"                                                                                                                                ",
"                                                                                                                                ",
"                                                                                                                                ",
"                                                                                                                                ",
"                                                                                                                                ",
"                                                                                                                                ",
"                                                                                                                                ",
"                                                                                                                                ",
"                                                                                                                                ",
"                                                                                                                                ",
"                                                                                                                                ",
"                                                                                                                                ",
"                                                                                                                                ",
"                                                                                                                                ",
"                                                                                                                                ",
"                                                                                                                                ",
"                                                                                                                                "
};
