/* XPM */
static char *_e97ceba31cc4836d18e349cb855ee4aVdB84v2jSjIWpGk7[] = {
/* columns rows colors chars-per-pixel */
"64 64 130 2 ",
"   c None",
".  c #47655C",
"X  c #48675D",
"o  c #48685D",
"O  c #48695D",
"+  c #496A5C",
"@  c #496B5C",
"#  c #496C5C",
"$  c #4A6C5C",
"%  c #4A6D5C",
"&  c #4A6E5C",
"*  c #4A6F5C",
"=  c #4B6F5C",
"-  c #4C725B",
";  c #4D755B",
":  c #4B705C",
">  c #4B715C",
",  c #4B725C",
"<  c #4C725C",
"1  c #4C735C",
"2  c #4C735E",
"3  c #4C745C",
"4  c #4D755C",
"5  c #4D775C",
"6  c #4E785B",
"7  c #4F7C5B",
"8  c #4E785C",
"9  c #4F7C5F",
"0  c #507F5B",
"q  c #507F5E",
"w  c #51805A",
"e  c #50805B",
"r  c #51815B",
"t  c #51825A",
"y  c #51825B",
"u  c #51835B",
"i  c #52835B",
"p  c #52855A",
"a  c #52845B",
"s  c #52855B",
"d  c #53865A",
"f  c #53875A",
"g  c #53865B",
"h  c #53875B",
"j  c #53865C",
"k  c #53875F",
"l  c #53885A",
"z  c #53885B",
"x  c #54895A",
"c  c #54895B",
"v  c #548B5A",
"b  c #548A5B",
"n  c #548B5B",
"m  c #53895C",
"M  c #53895E",
"N  c #558C5C",
"B  c #558D5C",
"V  c #558D5D",
"C  c #558F5C",
"Z  c #558E5D",
"A  c #558F5D",
"S  c #568F5D",
"D  c #568F5F",
"F  c #569359",
"G  c #56905E",
"H  c #56915E",
"J  c #56925E",
"K  c #57925E",
"L  c #57945F",
"P  c #599D5B",
"I  c #5A9F5B",
"U  c #5BA854",
"Y  c #5FB654",
"T  c #5FB558",
"R  c #61BD55",
"E  c #60B75A",
"W  c #60B75B",
"Q  c #60B958",
"!  c #60B859",
"~  c #61BA59",
"^  c #538861",
"/  c #569161",
"(  c #579560",
")  c #589560",
"_  c #589461",
"`  c #589761",
"'  c #589763",
"]  c #589860",
"[  c #599861",
"{  c #599961",
"}  c #599862",
"|  c #599962",
" . c #599A62",
".. c #599B62",
"X. c #5A9C63",
"o. c #5A9D63",
"O. c #5CA562",
"+. c #5BA064",
"@. c #5BA066",
"#. c #5BA166",
"$. c #5CA265",
"%. c #5CA365",
"&. c #5CA366",
"*. c #5CA466",
"=. c #5DA566",
"-. c #5DA666",
";. c #5DA767",
":. c #5EA767",
">. c #5FAF61",
",. c #5EAD62",
"<. c #5EAD63",
"1. c #5FAE62",
"2. c #5EAB64",
"3. c #5EA966",
"4. c #5EA867",
"5. c #5EA967",
"6. c #5EAA66",
"7. c #5EAC64",
"8. c #5DA768",
"9. c #5EA768",
"0. c #5EA868",
"q. c #5EA968",
"w. c #5EAA68",
"e. c #5FB060",
"r. c #5FB061",
"t. c #60B360",
"y. c #61C04E",
"u. c #62C34F",
"i. c #62C250",
"p. c #61C053",
/* pixels */
"                                                                                                                                ",
"                                                                                                                                ",
"                                                                                                                                ",
"                                                                                                                                ",
"                                                                                                                                ",
"                                                                                                                                ",
"                                                                                                                                ",
"                                                                                                                                ",
"                                                                                                                                ",
"                                                                                                                                ",
"                                                                                                                                ",
"                                                                                                                                ",
"                                                                                                                                ",
"                                                                                                                                ",
"                                                                                                                                ",
"                                                                                                                                ",
"                                                                                                                                ",
"                                                                                                                                ",
"                                                                                                                                ",
"                                                                                                                                ",
"                                                                                                                                ",
"                                                                                                                                ",
"                                                                                                                                ",
"                                              c c c c l c s s s h h h                                                           ",
"                                            c c l l l c Z Z Z Z B B B B                                                         ",
"                                        c c c c l l s B ..-.+.-.$.$.$...B c l                                                   ",
"                                        c c l l c ( ] ] -.0.0.0.0.4.t.E U I ) B                                                 ",
"                                      s s c l c J =.0.0.0.0.0.0.9.4.~ u.i.T =.B h                                               ",
"                                      1 e c l ) $.=.0.0.0.=.0.0.0.4.,.r.r.~ Y F i                                               ",
"                                    : 3 e N L +.0.0.4.0.0.0.0.0.9.4.,.r.0.~ R U /                                               ",
"                                  o 3 h c J $.4.0.0.0.0.0.0.0.0.9.4.~ R 7.T R ,.] M                                             ",
"                                  o 3 s c J =.4.0.4.0.0.0.0.0.0.8.4.,.r.4.,.r.4.] c                                             ",
"                                  o 3 s e M -.0.0.0.0.0.0.0.0.0.4.8.8.8.8.8.8.0...M                                             ",
"                                  o 3 s 3 9 +.0.0.0.0.0.0.0.0.0.0.0.8.8.0.8.0.0.] c                                             ",
"                                  o = 1 6 M =.0.0.0.0.0.0.0.0.0.0.0.0.0.0.;.0.0.] M                                             ",
"                                  o o 1 e J =.0.0.0.0.0.0.0.0.0.0.0.0.;.0.0.4.+.) c                                             ",
"                                  o 3 s c J $.4.4.0.9.=.0.0.0.0.0.0.0.0.0.0.-.J c c                                             ",
"                                  o - c N u ^ / ] ] ] ..0.0.0.0.w.0.0.0.0.+.( l e 3                                             ",
"                                  o 3 e s 0 = 6 e s e M ' o.$.$.-.+.+.=.+.( l u 3 =                                             ",
"                                      1 - & o o - & & - 1 q B S J B B B J B u 3 =                                               ",
"                                      X X o o o o o o o X - h h u s c s c c e =                                                 ",
"                                                                                                                                ",
"                                                                                                                                ",
"                                                                                                                                ",
"                                                                                                                                ",
"                                                                                                                                ",
"                                                                                                                                ",
"                                                                                                                                ",
"                                                                                                                                ",
"                                                                                                                                ",
"                                                                                                                                ",
"                                                                                                                                ",
"                                                                                                                                ",
"                                                                                                                                ",
"                                                                                                                                ",
"                                                                                                                                ",
"                                                                                                                                ",
"                                                                                                                                ",
"                                                                                                                                ",
"                                                                                                                                ",
"                                                                                                                                ",
"                                                                                                                                ",
"                                                                                                                                ",
"                                                                                                                                "
};
