/* XPM */
static char *e819fd7857874408bc0de0066f8363b3AISWfvF1OUipj18u[] = {
/* columns rows colors chars-per-pixel */
"64 64 177 2 ",
"   c None",
".  c #000100",
"X  c #030A05",
"o  c #080C06",
"O  c #0E0C08",
"+  c #140E0A",
"@  c #190F0C",
"#  c #071608",
"$  c #0D140B",
"%  c #07190B",
"&  c #15120C",
"*  c #1D110D",
"=  c #1D180E",
"-  c #22120F",
";  c #241411",
":  c #2D1513",
">  c #2C1915",
",  c #341615",
"<  c #3A1517",
"1  c #341A16",
"2  c #391916",
"3  c #3F1619",
"4  c #3A1D1B",
"5  c #0B2611",
"6  c #0D2A13",
"7  c #122413",
"8  c #1C2515",
"9  c #112E16",
"0  c #1E2917",
"q  c #143017",
"w  c #163218",
"e  c #19341A",
"r  c #1F391E",
"t  c #212D1A",
"y  c #25301C",
"u  c #29361E",
"i  c #213B1F",
"p  c #233C20",
"a  c #2D3F23",
"s  c #373A22",
"d  c #42171A",
"f  c #431A1B",
"g  c #4C1B1E",
"h  c #531E1F",
"j  c #581F1F",
"k  c #4C1A21",
"l  c #541E21",
"z  c #5A1F22",
"x  c #601F24",
"c  c #532121",
"v  c #5C2224",
"b  c #532B22",
"n  c #5B2923",
"m  c #543427",
"M  c #632425",
"N  c #6B2626",
"B  c #642A26",
"V  c #662429",
"C  c #6B262A",
"Z  c #6E2C2B",
"A  c #662B2A",
"S  c #742727",
"D  c #73272C",
"F  c #742A2D",
"G  c #7D2C2D",
"H  c #6C302B",
"J  c #66322B",
"K  c #76352F",
"L  c #752B30",
"P  c #792D30",
"I  c #733730",
"U  c #7C3232",
"Y  c #723B31",
"T  c #7C3A33",
"R  c #2D4325",
"E  c #2E4728",
"W  c #2F4828",
"Q  c #364728",
"!  c #314A2A",
"~  c #3B482B",
"^  c #3B522F",
"/  c #464A2B",
"(  c #465634",
")  c #455835",
"_  c #495B36",
"`  c #4C5E38",
"'  c #774B37",
"]  c #52663E",
"[  c #5B6238",
"{  c #55683F",
"}  c #566940",
"|  c #5B6D42",
" . c #5F7044",
".. c #686F40",
"X. c #637445",
"o. c #697746",
"O. c #697847",
"+. c #677648",
"@. c #6A7949",
"#. c #717746",
"$. c #717A45",
"%. c #737F49",
"&. c #812E2F",
"*. c #822E30",
"=. c #853232",
"-. c #8C3335",
";. c #8E3B33",
":. c #8F363B",
">. c #863D35",
",. c #933D36",
"<. c #90373C",
"1. c #933C39",
"2. c #844136",
"3. c #8B4337",
"4. c #874539",
"5. c #854A3B",
"6. c #8C4B3D",
"7. c #9B433C",
"8. c #954A3F",
"9. c #9A4B3E",
"0. c #94463B",
"q. c #A1453F",
"w. c #964C41",
"e. c #9E4C41",
"r. c #8E5543",
"t. c #935341",
"y. c #9B5545",
"u. c #9A5844",
"i. c #A34740",
"p. c #A64A42",
"a. c #A65444",
"s. c #A95646",
"d. c #A05A46",
"f. c #A45F49",
"g. c #AD5B4A",
"h. c #B05B4B",
"j. c #B05D4A",
"k. c #98644B",
"l. c #A3634B",
"z. c #AE644D",
"x. c #A56D4F",
"c. c #B2644E",
"v. c #B06E4F",
"b. c #AF764F",
"n. c #B3724D",
"m. c #A56F52",
"M. c #AC6C50",
"N. c #B26B51",
"B. c #AC7454",
"V. c #AE7C58",
"C. c #A57253",
"Z. c #B17956",
"A. c #B37958",
"S. c #76814B",
"D. c #7B864C",
"F. c #7C864D",
"G. c #7D864D",
"H. c #7C864C",
"J. c #7F884E",
"K. c #7E884D",
"L. c #7F8951",
"P. c #808A4F",
"I. c #818A4F",
"U. c #828A51",
"Y. c #878E53",
"T. c #878F54",
"R. c #848C52",
"E. c #888F55",
"W. c #888F54",
"Q. c #879054",
"!. c #8A9156",
"~. c #8A9155",
"^. c #8F9458",
"/. c #92965A",
"(. c #BC875D",
"). c #B4815D",
"_. c #C59266",
/* pixels */
"                                                                                                                                ",
"                                                                                                                                ",
"                                                                                                                                ",
"                                                                                                                                ",
"                                                                                                                                ",
"                                                                                                                                ",
"                                                                                                                                ",
"                                                                                                                                ",
"                                                                                                                                ",
"                                                                                                                                ",
"                                                                                                                                ",
"                                                                                                                                ",
"                                                                                                                                ",
"                                                                                                                                ",
"                                                                                                                                ",
"                                                                                    . .         6 6 # .                         ",
"                                                                                  % . .         6 6 # . .                       ",
"                                                                                6 5 . .       6 9     . .                       ",
"                                                                              6 6 6           6                                 ",
"                                                                              6 6             6                                 ",
"                                                                              9 6 6           6                                 ",
"                                        X X X X X X X X                         9 6 5 5 5 5 5 5                                 ",
"                                      @ , 1 , , 2 f , 2 *                         q E E ! ! ! E 9                               ",
"                                  * * 1 V V V v V S M F f - -                   e ! X.@.+.+.o. .R w                             ",
"                                @ g M M M M v h h h h N N N h @               9 E X.F.K.I.K.F.F.X.E w                           ",
"                              & k v v B N v v M M v h h j M N h &           6 i )  .F.Y.U.F.F.F.%. .E 5                         ",
"                            * l V C B D &.D S S N V V x j j M N V -         6 i ( X.F.Y.s / ~.$.8 ( ! 5                         ",
"                          : l C D C v l j g g v V v M M M M v M N v ,       6 u ( X.D.I...#.T.S.[ { ! 5                         ",
"                        1 v P w.e.w.3.U Z v M l h j z z x x M M M M , X     6 i ( X.D.H.~.!.Y.U.I.+.E 5                         ",
"                      X c =.1.h.h.h.h.s.9.,.-.D h g l h x x V S v h , @     5 a )  .D.I.Y.!.!.T.I.o.E 5                         ",
"                    o * A 7.p.i.p.p.h.c.a.i.1.1.L g g j z v M N M g g 2 + o 5 i ( X.F.Y.~.^./.~.Q.@.E 5                         ",
"                    O M d.g.i.s.s.z.N.h.7.1.1.1.-.G d g z M j h v g f 4 > O 5 R _ +.F.Y././././.~.O.E 5                         ",
"                    O M s.s.7.s.c.M.N.g.1.<.,.;.,.=.d h l l z l x f 4 > $ 7 R _ +.F.Y.!././././.E.O.E 5                         ",
"                    O M u.z.0.Z Z H t.g.,.<.1.;.;.=.v g g k l v h f ; $ 5 R _ o.F.T.E.!./././.!.E.O.E 5                         ",
"                    & T z.t.' u.k.k.5.2.i.<.,.,.=.P V d g g k z f - $ 7 R _ o.D.U.E.E././././.E.Q.@.E 5                         ",
"                    & 3.c.5.Y (.(._.C.5.>.1.1.-.-.P V d g l l V f + 7 R ] o.D.I.T.E.~././././.E.S.) R                           ",
"                    O n u.6.I A.n.M.).C.K =.-.-.-.&.V d l v v v f + 0 ( | H.H.I.~.E.!./././.!.R. .r                             ",
"                    o o ' t.T l.l.T r.A.l.V &.=.U G V f k v k k 2 * y _ X.H.I.I.!.!./././.!.!.U. .i                             ",
"                      o B 9.6.Z Z 6.x.A.l.B &.=.=.*.v d z v k < O y _ X.H.H.Y.~.!.!././././.T.U.| i                             ",
"                        * b 9.8.t.x.b.n.f.B F *.*.C k 3 l l k < + u ` o.H.P.Y.Y.^./././.!.!.L.| i                               ",
"                          - b k.B.V.Z.v.y.M C F P V k k l l f @ t ( X.S.F.Y.T.E.!././.!.!.!.L.} w                               ",
"                            = m r.u.u.5.J M V Z C V 3 k l k ; t _ { @.H.K.E.E.!././.!.!.!.U.| ! w                               ",
"                              O g c B C l V V C L V d k 3 ; 0 ) { X.S.K.U.E.E.!././.!.!.L.O.) 6                                 ",
"                                $ $ > v P C M v C V 3 3 * p _ | X.S.P.I.~.~.E.T.Y.E.E.R.X.} ^ 6                                 ",
"                            q w Q ~ t > F Z v v z l < + p _ |  .S.D.L.Y.Y.R.R.Y.R.R.L.| } ! 6                                   ",
"                      6 5 E ] ] ] } } ~ - k k k < ; & ( } } } | | |  . . . .X.| | X.| p w e                                     ",
"                  6 6 6 6 e p p p p p e 5 8 8 8 8 7 5 r p p p i i i i i r i r p p i r                                           ",
"                                                                                                                                ",
"                                                                                                                                ",
"                                                                                                                                ",
"                                                                                                                                ",
"                                                                                                                                ",
"                                                                                                                                ",
"                                                                                                                                ",
"                                                                                                                                ",
"                                                                                                                                ",
"                                                                                                                                ",
"                                                                                                                                ",
"                                                                                                                                ",
"                                                                                                                                ",
"                                                                                                                                ",
"                                                                                                                                ",
"                                                                                                                                ",
"                                                                                                                                "
};
