/* XPM */
static char *ba3936c261e242a4c44f1cf7adfd8c49S6K8xMopOrEBRfNi[] = {
/* columns rows colors chars-per-pixel */
"64 64 201 2 ",
"   c None",
".  c #030303",
"X  c #11100F",
"o  c #151513",
"O  c #1A1615",
"+  c #171817",
"@  c #1C1C16",
"#  c #1C1C1A",
"$  c #201F19",
"%  c #1D2315",
"&  c #15231C",
"*  c #1E221D",
"=  c #152B1D",
"-  c #1C2A1D",
";  c #14301F",
":  c #1B361C",
">  c #24231C",
",  c #28261F",
"<  c #212B19",
"1  c #273318",
"2  c #1F2120",
"3  c #1B2C22",
"4  c #0E3924",
"5  c #163322",
"6  c #193423",
"7  c #143C25",
"8  c #1F3729",
"9  c #1F3829",
"0  c #232523",
"q  c #282621",
"w  c #272925",
"e  c #292925",
"r  c #272728",
"t  c #262A2B",
"y  c #2B2D2C",
"u  c #302E2E",
"i  c #223324",
"p  c #263B24",
"a  c #27322A",
"s  c #2E312E",
"d  c #233D2B",
"f  c #2A3829",
"g  c #283D25",
"h  c #30352E",
"j  c #333F2F",
"k  c #2B2F30",
"l  c #2E3232",
"z  c #263C32",
"x  c #283D33",
"c  c #313535",
"v  c #333837",
"b  c #333639",
"n  c #353B3C",
"m  c #383D3E",
"M  c #26481E",
"N  c #35441D",
"B  c #2D5D1F",
"V  c #3C711F",
"C  c #0D492C",
"Z  c #124D2E",
"A  c #144529",
"S  c #12532F",
"D  c #1E4232",
"F  c #164D32",
"G  c #184933",
"H  c #0F5532",
"J  c #095E32",
"K  c #115434",
"L  c #135B33",
"P  c #1A5D32",
"I  c #185B3C",
"U  c #2E4021",
"Y  c #224626",
"T  c #364828",
"R  c #2B5128",
"E  c #38522F",
"W  c #345B2F",
"Q  c #2B4232",
"!  c #2B4E33",
"~  c #2C423A",
"^  c #2A4A3D",
"/  c #274136",
"(  c #364035",
")  c #354B34",
"_  c #39453B",
"`  c #384838",
"'  c #23563F",
"]  c #245735",
"[  c #375030",
"{  c #3C553A",
"}  c #19652F",
"|  c #1D702D",
" . c #0D6534",
".. c #1F6536",
"X. c #126D36",
"o. c #1E653B",
"O. c #1A6A39",
"+. c #196936",
"@. c #1D7137",
"#. c #1F7D37",
"$. c #1D7239",
"%. c #167338",
"&. c #296B29",
"*. c #3A6B2E",
"=. c #39672D",
"-. c #357023",
";. c #3C7623",
":. c #33742B",
">. c #3D732C",
",. c #3E7A2C",
"<. c #347D2A",
"1. c #2A6E33",
"2. c #3A6333",
"3. c #247133",
"4. c #227D37",
"5. c #297636",
"6. c #307730",
"7. c #357D30",
"8. c #4A7C18",
"9. c #447D29",
"0. c #437737",
"q. c #363E40",
"w. c #383F40",
"e. c #2F4B42",
"r. c #374141",
"t. c #3C4244",
"y. c #354C44",
"u. c #3A4D43",
"i. c #3E4648",
"p. c #3E494B",
"a. c #2D5344",
"s. c #2F5548",
"d. c #265A41",
"f. c #39544D",
"g. c #385447",
"h. c #2A6541",
"j. c #2A7949",
"k. c #2B7745",
"l. c #327E45",
"z. c #404749",
"x. c #444B4D",
"c. c #425648",
"v. c #454E51",
"b. c #465153",
"n. c #485355",
"m. c #4B5659",
"M. c #4E5B5E",
"N. c #4C624B",
"B. c #46615C",
"V. c #496151",
"C. c #556C54",
"Z. c #516D5C",
"A. c #577056",
"S. c #587057",
"D. c #55715E",
"F. c #4F5D60",
"G. c #515E61",
"H. c #4A6661",
"J. c #526164",
"K. c #586B6E",
"L. c #55666A",
"P. c #5F7E67",
"I. c #53746D",
"U. c #5B7D6F",
"Y. c #5A6D71",
"T. c #5C7176",
"R. c #567A72",
"E. c #5B7D70",
"W. c #3C8326",
"Q. c #33822B",
"!. c #3C832B",
"~. c #368E2C",
"^. c #398C2C",
"/. c #3F942A",
"(. c #2A8531",
"). c #358030",
"_. c #3D8236",
"`. c #4F8013",
"'. c #4F841D",
"]. c #46861F",
"[. c #548819",
"{. c #4B921F",
"}. c #579D1D",
"|. c #57A01D",
" X c #448E23",
".X c #4C8B2C",
"XX c #538B23",
"oX c #5B8D21",
"OX c #429527",
"+X c #479421",
"@X c #489324",
"#X c #479924",
"$X c #479A25",
"%X c #409128",
"&X c #5C9728",
"*X c #5E992A",
"=X c #4D8E30",
"-X c #42893C",
";X c #649D24",
":X c #639C23",
">X c #609C2B",
/* pixels */
"                                                                                                                                ",
"                                                                                                                                ",
"                                                                                                                                ",
"                                                                                                                                ",
"                                                                                                                                ",
"                                                                                                                                ",
"                                                                                                                                ",
"                                                                                                                                ",
"                                                                                                                                ",
"                                                                                                                                ",
"                        2 y x.G.F.G.Y.T.T.Y.T.Y.T.T.Y.T.T.Y.J.J.K.Y.J.M.F.M.F.M.M.m.x.x.m.m.x.z.x.m t $                         ",
"            c n z.m.G.M.z.m n n n n w.t.i.w.i.w.w.i.w.i.w.w.n n b b n b l k k l u k t t t t t r 0 y b t.x.z.n s > @             ",
"            r y b q.f.f.g.y.d 8 d d 8 9 d d 9 9 d d d d z Y z 9 6 6 z 9 7 6 6 6 6 6 6 6 ; ; 6 5 & 5 ^ y.y.~ l 0 + @             ",
"        r 0 # + + 3 4 C K K H L O.O.L L O.O.L L +.3.$.$.$.3.$.$.$.3.3.O.$.$.3.O.O.3.$.O.@.@.@.+.L H K K C 4 & o o @ @ @         ",
"        # 0 k b l n e.s.e.d.L J  . .X.%.%.%.%.X.%.4.(.(.4.4.(.^.OXOX~.~.OX$X$X#X$X#X$X#X$XOX~.(.%.O.d.a.^ / t q > # @ o         ",
"        X 0 v t.t.p.n.v.p.y.d.I I o.j.j.j.j.j.j.j.l.-X-Xl.5.-X.X>X>X=X=X&X;X;X;X;X;X:X:X:X&X.X_.5.h.u.i.t.m l t , # O o         ",
"            # 2 , q 0 w y n b.B.B.H.I.R.R.R.R.R.R.R.U.E.R.I.H.I.P.P.D.Z.Z.S.S.Z.S.C.N.N.C.C.N.c.b.u.s 2 > @ @ @ @ o             ",
"            @ @ $ > > w a n x.n.x.x.n.m.m.m.m.m.m.m.m.m.M.n.x.x.v.v.x.z.i.w.t.w.w.w.b b q.q.v n e./ 3 @ O o o o o o             ",
"            , , , e l c v w.r.n l y y s y y k y y y y y y y y w 0 0 t r 0 2 > 2 2 2 2 # + + # 3 Z K - @ @ @ @ $ % $             ",
"            , q y y c c v v m n v c b l v v l b v c v c y c c c k r y y y r t e , 0 r r $ $ $ 8 P P i $ $ @ @ $ > >             ",
"            , e l c c v c v m t.z.w.z.z.t.t.t.t.t.t.r.m n m m m b b b b b c c c u u c h y e w Y 3.1.g , $ $ $ $ , ,             ",
"            , e s v n m m t.z.x.x.x.x.x.v.x.x.v.x.z.t.t.z.z.i.r.w.q.m m w.m v c b b c c c z Z } Q.;.g > , > $ $ > ,             ",
"          $ > e s c v v m t.z.z.x.x.v.x.v.x.v.x.z.z.z.z.t.z.z.t.w.w._ q.n v v v n n b b c z H @.+X'.N > $ $ > > , > $           ",
"        % > > e s c b v n m r.t.x.x.x.v.v.v.x.x.t.t.z.z.t.t.x.z.w.w.q.n v c m m c c m n c z G &. X'.T > $ $ > , , , > @         ",
"        w q q w u c n m n r.z.z.t.z.z.x.v.x.v.v.x.z.z.t.z.x.t.r.w.w.q.w.n n v v q.n b l c l l ! 3.1.) y q $ @ > > > > @         ",
"        * 0 w h n t.i.z.z.z.z.z.z.t.z.z.x.x.x.x.x.x.t.z.t.t.t.t.w.w.w.n w.n v b b b b b l v [ =.!.!.*.W ! Y i e , > @ o         ",
"        o + t c z.x.z.z.z.z.t.t.x.x.z.z.v.n.n.v.v.n.v.x.i.i.x.x.i.r.i.t.t.t.t._ v ( _ _ ( E ,.#X}.}. X<.3.] x y q $ + o         ",
"            # * q e e y c m b.M.G.G.L.L.Y.Y.Y.K.G.G.K.K.F.M.M.M.M.m.m.m.m.V.0.,.9.9.XXoXoXXX@X/.~.:.M : : 6 % @ + @             ",
"            @ O @ $ > , t v v.m.n.n.G.J.J.J.J.M.m.n.M.M.n.b.b.b.v.x.b.v.v.g.=.-.-.;.8.`.8.8.;.&.@.L & o o o o o o o             ",
"            > , , q y c v m r.w.c u u k l l l s u u r r t s s t 0 r t y r 2 0 < * q < < % % > 6 S Z - @ @ @ $ @ @ @             ",
"            q q e s c c v n n v c c h c l c c s e r * * 0 t l l t t y y w r r 0 > $ 0 0 $ @ $ > = ; * > $ @ @ % > >             ",
"            , e s c c c b v r.t.r.t.w.w.r.t.m b s t r r t l b n v c c v c c c l e y u c e q e 0 < - , > > @ $ > > ,             ",
"            , e l v n n m r.z.x.x.z.x.x.p.i.q.k k k l k k t k k v w.q.n q.n v c v v v l l c c f G A w , > > $ @ > ,             ",
"          > > e s v v n m m z.z.v.x.v.v.i.q.q.k k k l k z k t k l v q.q.n v v n v n n v c c k f P L i > > > > > > , >           ",
"        # > > e s c b v m m m t.z.v.v.z.q.b l q.q.k k k l l k t k l b n b v n n v b n n c y e p ..o.d , $ $ > , , > > @         ",
"        q , , e s c v n n w.i.x.v.x.w.b b l k q.k t l k k k b k k t k l v n n v n n v v c c u x o.3.x e , > # $ , > > @         ",
"        0 0 q s c m t.t.i.z.x.x.z.w.b c q.k l k k t k l k k k k k t t k b b x b v n v b c l z ] 6.7.2.T f y q , q > @ @         ",
"        o # r v z.x.x.x.x.x.x.z.c u l b k q.q.k q.k k k l z k t t t t t k l n n v b n n c x F &.{.}. X*.` b c y q $ @ o         ",
"          + # r y l h h c t.n.m.v.p.p.p.p.p.q.q.p.p.q.q.q.q.q.b q.q.n q.p.p.n.m.n.v.v.u.2.,.W./.^.W.B M i r 0 # # + o           ",
"            o @ @ $ $ > e c n.M.F.n.v.p.p.p.q.q.q.y.q.q.n q.n q.q.b q.r.b.m.n.m.m.v.i.{ *.8.[.'.6.L = o o o o o o o             ",
"            > > , , y c c m i.w.b l l y r 0 0 0 r 2 3 0 0 2 2 r 2 2 r r r r r r t t r 0 < < 1 Y S S - @ @ @ @ @ @ @             ",
"            , q e y h c v n w.v c k l y y r 2 # # 2 0 2 2 2 # 2 2 3 r 2 0 0 0 * % # 2 > # O O 2 7 : - > $ @ @ $ > >             ",
"            , e s c c c c v w.r.w.w.w.w.w.v t t 0 r t t 0 2 r t l c l b c c c s w e l s e q , , % > > > > @ @ $ > ,             ",
"            , e s v v n n w.i.z.x.z.z.x.x.i.i.n l k k t r t l b n n n n n n c c v c c l h y h y > > > > > > $ $ > ,             ",
"            , e u c v m m t.z.z.x.n.x.n.v.v.v.x.w.b y t l v t.t.r.r.r.w.m v v n m v v v b l h y e q q , > > > $ > >             ",
"        @ > > e h c c v m m m t.x.x.x.x.x.v.v.x.x.z.c c i.x.x.z.t.q.r.n v b n n v v n n c l e e s s q > $ $ > , q < > @         ",
"        0 , > e u c v b m m z.z.z.z.x.x.v.v.x.v.v.x.w.i.x.x.z.t.r.m q.n n v n v v v n v c c y a D / s w > $ $ > > > > @         ",
"        0 q e e c m m t.m z.x.z.t.t.x.x.x.x.x.x.x.x.x.x.x.z.i.r.w.m q.m w.n v b m n v c c c c x P } ! ( h w > > q > # @         ",
"        O # y v t.x.x.x.x.z.i.t.z.z.t.i.z.x.v.v.x.x.v.x.t.i.z.z.r.q.n q.m q.q.v v v n n c c l ) :.^.W.0.` v c y e > + o         ",
"          + 2 y c v v v m _ z.v.m.M.m.F.J.J.G.G.M.M.G.G.n.n.n.m.n.b.b.v.b.v.b.v.x.z.i.p.x.u.{ =.<.Q.-.M g w w 0 % @ o           ",
"            o o @ # > > t v n.G.G.G.Y.Y.T.Y.T.Y.G.G.K.Y.J.M.M.M.M.M.F.M.M.M.M.M.M.n.x.x.n.N.0.W.4.P = o o o o X o o             ",
"            > > > , 0 s c m t.z.m m w.w.t.t.t._ m m w.m m n v v l l v v l k k k l l y t t a p Y L S - o O @ @ O @ @             ",
"            , , e e c c v n w.v h u y y y u u u y u y y y y y y q 0 r r 0 $ 2 0 # # > * @ o @ 3 7 7 < $ $ @ @ > $ >             ",
"            > e y c c c c v m r.m m m n n m v m n m m v c c n v l l c c c c l y 0 e y y , > > > % < > > > @ @ $ > ,             ",
"            , e h c v n v n t.z.x.z.z.x.z.z.z.z.z.z.r.t.t.t.m m m v v v n v c c c c c c y u h e > > > , > > @ @ > ,             ",
"            , e h c n q.w.t.x.x.x.x.x.v.x.x.n.x.x.z.t.t.z.x.t.t.r.w.w.r.w.v v v v n v c c c c h e e , , > > > > , ,             ",
"        @ $ , q u c c v m w.w.t.z.v.x.v.x.v.x.x.z.t.z.z.t.t.z.z.i.n w.n v b n n b b n m b c e e s s e > @ > > q , > > @         ",
"        , > , e s c b v m r.t.z.z.z.x.v.x.v.x.x.z.t.z.z.z.i.z.i.w.m r.n n n n v n v v v c s y w e s e e > # > > , > > @         ",
"        q r q e c c m r.r.t.z.z.i.t.z.v.v.x.x.n.x.z.t.t.z.z.t.w.w.q.w.w.w.n v b n q.v c c c s s e e c s e , % > > > @ @         ",
"        + # y c t.z.x.x.x.z.z.t.i.i.t.t.x.x.x.x.x.x.x.z.t.t.z.z.r.m n m q.q.n v v v v v c c c s h h n n v c s y e > @ o         ",
"        o + 0 k b q.n w.z.z.z.x.n.n.n.n.M.G.F.M.n.m.M.m.v.x.n.n.x.x.x.z.x.x.x.p.t.t.t.t.i.t.w.m m v c l l l y r > # o o         ",
"            o + + # # 0 q c b.G.G.J.Y.T.T.T.T.Y.L.J.Y.Y.J.M.G.G.F.F.M.F.M.M.F.M.G.m.b.v.m.m.v.x.x.m 0 o o o + o o o             ",
"                      o X + y n _ t.z.x.x.p.x.p.t.t.x.x.i.r.w._ n n r.r.n v v n b b c k l c l k k 0 + o o                       ",
"                        . . o > r e t w e t e e e e e e e t r r # * r 0 2 # + # # + # + o o + + o X o o                         "
};
